<svg width="16" height="16" viewBox="0 0 16 16" fill="none" xmlns="http://www.w3.org/2000/svg">
<path fill-rule="evenodd" clip-rule="evenodd" d="M4.656 0.0845114C4.97244 0.0845114 5.23644 0.303704 5.27111 0.587695V1.35967H8.76444C9.104 1.35967 9.37511 1.61006 9.37511 1.91885C9.37511 2.22844 9.104 2.47883 8.76444 2.47883H5.25689V3.03802C5.25689 3.18441 5.19111 3.32841 5.07289 3.4348C4.95822 3.5412 4.80178 3.5972 4.63911 3.5972L4.54844 3.5876C4.25689 3.5412 4.03822 3.30681 4.04178 3.02842V0.587695L4.05867 0.503698C4.13156 0.259706 4.37511 0.0845114 4.656 0.0845114ZM4.30933 8.49064L4.40622 8.49704C4.576 8.51624 4.736 8.58744 4.85778 8.69703C5.00356 8.83143 5.08711 9.00982 5.08711 9.20022C5.08711 9.59061 4.73956 9.9066 4.31289 9.9066C3.88533 9.9066 3.54133 9.59061 3.54133 9.20022C3.54133 8.80983 3.88533 8.49064 4.31289 8.49064H4.30933ZM8.01422 8.49064L8.11111 8.49704C8.49333 8.54104 8.78844 8.83783 8.78844 9.20022C8.78844 9.59061 8.44089 9.9066 8.01422 9.9066C7.59022 9.9066 7.24267 9.59061 7.24267 9.20022C7.24267 8.80983 7.59022 8.49064 8.01422 8.49064ZM11.7227 8.49064L11.8196 8.49704C11.9893 8.51624 12.1458 8.58744 12.2711 8.69703C12.4169 8.83143 12.5004 9.00982 12.5004 9.20022C12.5004 9.59061 12.1529 9.9066 11.7262 9.9066C11.2987 9.9066 10.952 9.59061 10.952 9.20022C10.952 8.80983 11.2987 8.49064 11.7262 8.49064H11.7227ZM4.30933 11.3561L4.40622 11.3625C4.576 11.3817 4.736 11.4529 4.85778 11.5625C5.00356 11.6969 5.08711 11.8785 5.08711 12.0657C5.08711 12.4561 4.73956 12.7721 4.31289 12.7721C3.88533 12.7721 3.54133 12.4561 3.54133 12.0657C3.54133 11.6753 3.88533 11.3593 4.31289 11.3593L4.30933 11.3561ZM8.01422 11.3593L8.11111 11.3625C8.49333 11.4065 8.78844 11.7065 8.78844 12.0657C8.78844 12.4561 8.44089 12.7721 8.01422 12.7721C7.59022 12.7721 7.24267 12.4561 7.24267 12.0657C7.24267 11.6753 7.59022 11.3593 8.01422 11.3593ZM11.7227 11.3561L11.8196 11.3625C11.9893 11.3817 12.1458 11.4529 12.2711 11.5625C12.4169 11.6969 12.5004 11.8785 12.5004 12.0657C12.5004 12.4561 12.1529 12.7721 11.7262 12.7721C11.2987 12.7721 10.952 12.4561 10.952 12.0657C10.952 11.6753 11.2987 11.3593 11.7262 11.3593L11.7227 11.3561ZM11.3716 0.000514066C11.7084 0.0189135 11.9653 0.278905 11.9582 0.587695V1.41647C14.632 1.65006 16 2.98202 16 5.37234V11.9873C16 14.6504 14.3164 16 11 16H5C1.68444 16 0 14.6504 0 11.9873V5.37234C0 3.77879 0.604444 2.64123 1.84 1.97565L1.92711 1.93165C2.104 1.85645 2.31556 1.86285 2.48978 1.95325C2.69422 2.05965 2.816 2.26284 2.80178 2.47883C2.78844 2.69083 2.64267 2.88202 2.42667 2.96602C1.608 3.4036 1.22222 4.16918 1.22222 5.37234V5.58433H12.5004C12.8373 5.58433 13.1076 5.83473 13.1076 6.14432C13.1076 6.45311 12.8373 6.7035 12.5004 6.7035H1.22222V11.9873C1.22222 14.0185 2.31911 14.8592 5 14.8752H11C13.6427 14.8752 14.7707 14.0129 14.7707 11.9817V5.36594C14.7707 3.5972 13.9138 2.74123 11.9582 2.53483V3.07242C11.9138 3.35961 11.6391 3.5692 11.3227 3.5564C11.0071 3.5476 10.7502 3.31881 10.7298 3.02842V0.538097L10.7396 0.4501C10.7644 0.334903 10.8302 0.228507 10.9271 0.147709C11.0489 0.0477125 11.2089 -0.00588573 11.3716 0.000514066Z" fill="#E6E6E6"/>
</svg>
