<svg width="25" height="24" viewBox="0 0 25 24" fill="none" xmlns="http://www.w3.org/2000/svg">
<path d="M12.625 1.5C6.82656 1.5 2.125 6.20156 2.125 12C2.125 17.7984 6.82656 22.5 12.625 22.5C18.4234 22.5 23.125 17.7984 23.125 12C23.125 6.20156 18.4234 1.5 12.625 1.5ZM12.625 20.7188C7.81094 20.7188 3.90625 16.8141 3.90625 12C3.90625 7.18594 7.81094 3.28125 12.625 3.28125C17.4391 3.28125 21.3438 7.18594 21.3438 12C21.3438 16.8141 17.4391 20.7188 12.625 20.7188Z" fill="#808080"/>
<path d="M17.4859 11.6981L10.5461 6.65902C10.4904 6.61822 10.4245 6.59367 10.3558 6.58812C10.287 6.58257 10.218 6.59623 10.1565 6.62758C10.095 6.65893 10.0435 6.70673 10.0075 6.76567C9.97164 6.8246 9.9528 6.89235 9.95313 6.96136V17.0395C9.95313 17.3465 10.3 17.52 10.5461 17.3419L17.4859 12.3028C17.5339 12.2683 17.5729 12.2228 17.5998 12.1703C17.6267 12.1177 17.6407 12.0595 17.6407 12.0004C17.6407 11.9414 17.6267 11.8832 17.5998 11.8306C17.5729 11.778 17.5339 11.7326 17.4859 11.6981ZM11.4484 14.8387V9.16215L15.3555 12.0004L11.4484 14.8387Z" fill="#808080"/>
</svg>
