<svg width="14" height="14" viewBox="0 0 14 14" fill="none" xmlns="http://www.w3.org/2000/svg">
<path fill-rule="evenodd" clip-rule="evenodd" d="M1.96 13.9548H10.36C11.4447 13.9525 12.32 13.0711 12.32 11.988V7.76621C12.32 7.45765 12.0686 7.20621 11.76 7.20621C11.4514 7.20621 11.2 7.45765 11.2 7.76621V11.988C11.2022 12.454 10.8259 12.8325 10.36 12.8348H1.96C1.49408 12.8325 1.11776 12.454 1.12 11.988V3.60149C1.11776 3.13557 1.49408 2.75701 1.96 2.75477H6.16C6.46856 2.75477 6.72 2.50333 6.72 2.19477C6.72 1.88621 6.46856 1.63477 6.16 1.63477H1.96C0.87472 1.63701 0 2.51845 0 3.60149V11.988C0 13.0711 0.87472 13.9525 1.96 13.9548Z" fill="white"/>
<path fill-rule="evenodd" clip-rule="evenodd" d="M6.35282 6.81911L10.1457 3.01727L10.9286 3.80463L7.13346 7.60871L6.12938 7.82991L6.35282 6.81911ZM11.3357 1.82727C11.5563 1.61503 11.9063 1.61503 12.1275 1.82727C12.3443 2.04791 12.3443 2.39791 12.1275 2.61911L11.7316 3.01503L10.9398 2.22319L11.3357 1.82727ZM5.29386 6.41871L4.85202 8.44199C4.81282 8.63015 4.86938 8.82503 5.00546 8.95831C5.14098 9.08991 5.33306 9.14647 5.51898 9.10951L7.54058 8.66767C7.64306 8.64359 7.73938 8.59095 7.8161 8.51423L12.9194 3.41095C13.5757 2.75463 13.5757 1.69175 12.9194 1.03543C12.2547 0.40095 11.2086 0.40095 10.5439 1.03543L5.44898 6.14319C5.37282 6.21991 5.31794 6.31343 5.29386 6.41871Z" fill="white"/>
</svg>
