<svg width="9" height="10" viewBox="0 0 9 10" fill="none" xmlns="http://www.w3.org/2000/svg">
<path d="M-4.37114e-08 9C-3.21184e-08 9.13261 0.0526781 9.25979 0.146446 9.35355C0.240214 9.44732 0.367392 9.5 0.5 9.5C0.632608 9.5 0.759786 9.44732 0.853554 9.35355C0.947322 9.25979 1 9.13261 1 9L1 5.752L7.267 9.388C7.807 9.7 8.5 9.322 8.5 8.692L8.5 1.308C8.5 0.677999 7.808 0.298 7.267 0.611L1 4.247L0.999999 1C0.999999 0.867392 0.947321 0.740215 0.853553 0.646447C0.759785 0.552679 0.632608 0.500001 0.499999 0.500001C0.367391 0.500001 0.240214 0.552679 0.146445 0.646447C0.0526773 0.740215 -7.54687e-07 0.867392 -7.43094e-07 1L-4.37114e-08 9Z" fill="#FF0000"/>
</svg>
