<svg width="24" height="12" viewBox="0 0 24 12" fill="none" xmlns="http://www.w3.org/2000/svg">
<path d="M12 0C5.74805 0 0.9375 5.50781 0.9375 5.50781L0.492188 6L0.9375 6.49219C0.9375 6.49219 5.32324 11.4932 11.1562 11.9531C11.4346 11.9883 11.7129 12 12 12C12.2871 12 12.5654 11.9883 12.8438 11.9531C18.6768 11.4932 23.0625 6.49219 23.0625 6.49219L23.5078 6L23.0625 5.50781C23.0625 5.50781 18.252 0 12 0ZM12 1.5C13.6523 1.5 15.1758 1.95117 16.5 2.55469C16.9775 3.3457 17.25 4.25684 17.25 5.25C17.25 7.95996 15.2168 10.1865 12.5859 10.4766C12.5713 10.4795 12.5537 10.4736 12.5391 10.4766C12.3604 10.4854 12.1816 10.5 12 10.5C11.8008 10.5 11.6074 10.4883 11.4141 10.4766C8.7832 10.1865 6.75 7.95996 6.75 5.25C6.75 4.27148 7.01367 3.36035 7.47656 2.57812H7.45312C8.78906 1.96289 10.3301 1.5 12 1.5ZM12 3C10.7578 3 9.75 4.00781 9.75 5.25C9.75 6.49219 10.7578 7.5 12 7.5C13.2422 7.5 14.25 6.49219 14.25 5.25C14.25 4.00781 13.2422 3 12 3ZM5.4375 3.70312C5.32031 4.20703 5.25 4.71387 5.25 5.25C5.25 6.56543 5.625 7.7959 6.28125 8.83594C4.3916 7.74316 3.0791 6.43945 2.64844 6C3.00879 5.63086 4.01367 4.65234 5.4375 3.70312ZM18.5625 3.70312C19.9863 4.65234 20.9912 5.63086 21.3516 6C20.9209 6.43945 19.6084 7.74316 17.7188 8.83594C18.375 7.7959 18.75 6.56543 18.75 5.25C18.75 4.71387 18.6797 4.20117 18.5625 3.70312Z" fill="#D8DCED"/>
</svg>
