<svg width="33" height="32" viewBox="0 0 33 32" fill="none" xmlns="http://www.w3.org/2000/svg">
<path d="M29.5 4C29.5 3.73478 29.3946 3.48043 29.2071 3.29289C29.0196 3.10536 28.7652 3 28.5 3C22.99 3 17.3362 9.21375 14.1962 13.3287C13.0748 12.9853 11.8885 12.9096 10.7325 13.1078C9.57658 13.306 8.48321 13.7726 7.54026 14.47C6.59731 15.1674 5.83105 16.0762 5.30304 17.1234C4.77503 18.1707 4.49998 19.3272 4.49999 20.5C4.49999 24.36 2.05749 26.0912 1.94124 26.1712C1.76385 26.291 1.62957 26.4646 1.55816 26.6664C1.48674 26.8681 1.48195 27.0875 1.5445 27.2922C1.60704 27.4969 1.73362 27.6761 1.90561 27.8035C2.07761 27.931 2.28594 27.9998 2.49999 28H12C13.1728 28 14.3293 27.725 15.3765 27.1969C16.4238 26.6689 17.3326 25.9027 18.03 24.9597C18.7274 24.0168 19.1939 22.9234 19.3921 21.7675C19.5903 20.6115 19.5147 19.4252 19.1712 18.3037C23.2875 15.1637 29.5 9.51 29.5 4ZM12 26H4.82874C5.67249 24.8013 6.49999 22.99 6.49999 20.5C6.49999 19.4122 6.82256 18.3488 7.4269 17.4444C8.03125 16.5399 8.89023 15.8349 9.89523 15.4187C10.9002 15.0024 12.0061 14.8935 13.073 15.1057C14.1399 15.3179 15.1199 15.8417 15.8891 16.6109C16.6583 17.3801 17.1821 18.3601 17.3943 19.427C17.6065 20.4939 17.4976 21.5998 17.0813 22.6048C16.665 23.6098 15.9601 24.4687 15.0556 25.0731C14.1512 25.6774 13.0878 26 12 26ZM16.0525 14.1938C16.4808 13.6388 16.9012 13.1158 17.3137 12.625C18.3234 13.3071 19.1929 14.1766 19.875 15.1862C19.3833 15.5979 18.8604 16.0183 18.3062 16.4475C17.7235 15.5448 16.9552 14.7765 16.0525 14.1938ZM21.39 13.8588C20.635 12.7935 19.7052 11.8637 18.64 11.1088C22.6125 6.7925 25.6087 5.48375 27.3775 5.12C27.0212 6.89 25.7062 9.88625 21.39 13.8588Z" fill="#F2F2F2"/>
</svg>
