<svg width="22" height="19" viewBox="0 0 22 19" fill="none" xmlns="http://www.w3.org/2000/svg">
<path d="M10.6665 3.26305L11 3.56156L11.3335 3.26305C12.1921 2.49447 13.8989 1.25 15.875 1.25C18.7009 1.25 21 3.54914 21 6.375C21 7.2039 20.6167 8.033 20.1849 8.69471C19.7591 9.34726 19.3241 9.77981 19.2987 9.80494L19.2969 9.8067L11 18.1036L2.69856 9.80219L2.69668 9.80033C2.67379 9.77769 2.23985 9.34628 1.81458 8.69423C1.38336 8.03305 1 7.20393 1 6.375C1 3.54914 3.29914 1.25 6.125 1.25C8.10114 1.25 9.80791 2.49447 10.6665 3.26305Z" stroke="#465697"/>
</svg>
