<svg width="25" height="25" viewBox="0 0 25 25" fill="none" xmlns="http://www.w3.org/2000/svg">
<path d="M20.7852 7.25H4.28516C3.87094 7.25 3.53516 7.58579 3.53516 8V20C3.53516 20.4142 3.87094 20.75 4.28516 20.75H20.7852C21.1994 20.75 21.5352 20.4142 21.5352 20V8C21.5352 7.58579 21.1994 7.25 20.7852 7.25Z" stroke="#808080" stroke-width="1.4" stroke-linecap="round" stroke-linejoin="round"/>
<path d="M16.2852 7.25V5.75C16.2852 5.35218 16.1271 4.97064 15.8458 4.68934C15.5645 4.40804 15.183 4.25 14.7852 4.25H10.2852C9.88733 4.25 9.5058 4.40804 9.2245 4.68934C8.94319 4.97064 8.78516 5.35218 8.78516 5.75V7.25" stroke="#808080" stroke-width="1.4" stroke-linecap="round" stroke-linejoin="round"/>
<path d="M3.53516 15.5H21.5352" stroke="#808080" stroke-width="1.4" stroke-linecap="round" stroke-linejoin="round"/>
</svg>
