<svg width="21" height="19" viewBox="0 0 21 19" fill="none" xmlns="http://www.w3.org/2000/svg">
<path d="M15.5963 0.787472C15.1307 0.490395 14.5125 0.626992 14.2154 1.09257C13.9183 1.55815 14.0549 2.1764 14.5205 2.47348L15.5963 0.787472ZM18.8117 11.628L19.7688 11.9177L19.7688 11.9177L18.8117 11.628ZM1.39625 11.628L0.43912 11.9177L0.439122 11.9177L1.39625 11.628ZM5.68745 2.47348C6.15303 2.1764 6.28963 1.55815 5.99255 1.09257C5.69547 0.626992 5.07721 0.490395 4.61164 0.787472L5.68745 2.47348ZM11.1032 1C11.1032 0.447715 10.6554 0 10.1032 0C9.55087 0 9.10315 0.447715 9.10315 1H11.1032ZM9.10315 8.69121C9.10315 9.24349 9.55087 9.69121 10.1032 9.69121C10.6554 9.69121 11.1032 9.24349 11.1032 8.69121H9.10315ZM14.5205 2.47348C17.5196 4.38717 18.8664 7.99501 17.8546 11.3384L19.7688 11.9177C21.0447 7.70182 19.3377 3.17479 15.5963 0.787472L14.5205 2.47348ZM17.8546 11.3384C16.8416 14.6854 13.6955 17 10.104 17V19C14.5545 19 18.4941 16.1297 19.7688 11.9177L17.8546 11.3384ZM10.104 17C6.51241 17 3.36634 14.6854 2.35337 11.3384L0.439122 11.9177C1.71386 16.1297 5.65346 19 10.104 19V17ZM2.35338 11.3384C1.34155 7.99501 2.68832 4.38717 5.68745 2.47348L4.61164 0.787472C0.870252 3.17479 -0.836763 7.70182 0.43912 11.9177L2.35338 11.3384ZM9.10315 1V8.69121H11.1032V1H9.10315Z" fill="#333333"/>
</svg>
