<svg width="25" height="18" viewBox="0 0 25 18" fill="none" xmlns="http://www.w3.org/2000/svg">
<path fill-rule="evenodd" clip-rule="evenodd" d="M0.5 2C0.5 1.17157 1.17157 0.5 2 0.5C2.82843 0.5 3.5 1.17157 3.5 2C3.5 2.82843 2.82843 3.5 2 3.5C1.17157 3.5 0.5 2.82843 0.5 2ZM7 2C7 1.44772 7.44772 1 8 1H24C24.5523 1 25 1.44772 25 2C25 2.55228 24.5523 3 24 3H8C7.44772 3 7 2.55228 7 2ZM0.5 9C0.5 8.17157 1.17157 7.5 2 7.5C2.82843 7.5 3.5 8.17157 3.5 9C3.5 9.82843 2.82843 10.5 2 10.5C1.17157 10.5 0.5 9.82843 0.5 9ZM7 9C7 8.44772 7.44772 8 8 8H24C24.5523 8 25 8.44772 25 9C25 9.55229 24.5523 10 24 10H8C7.44772 10 7 9.55229 7 9ZM0.5 16C0.5 15.1716 1.17157 14.5 2 14.5C2.82843 14.5 3.5 15.1716 3.5 16C3.5 16.8284 2.82843 17.5 2 17.5C1.17157 17.5 0.5 16.8284 0.5 16ZM7 16C7 15.4477 7.44772 15 8 15H24C24.5523 15 25 15.4477 25 16C25 16.5523 24.5523 17 24 17H8C7.44772 17 7 16.5523 7 16Z" fill="#333333"/>
</svg>
