<svg width="16" height="14" viewBox="0 0 16 14" fill="none" xmlns="http://www.w3.org/2000/svg">
<path d="M1.5 7.50623C1.5 8.57362 2.24894 9.5027 3.30497 9.65797C4.02905 9.76444 4.761 9.84665 5.5 9.90376V13L8.0741 10.4259C8.34974 10.1503 8.72193 9.99436 9.11151 9.98107C10.3243 9.93968 11.5201 9.83079 12.695 9.65805C13.751 9.50279 14.5 8.5737 14.5 7.5063V3.4937C14.5 2.42631 13.751 1.49722 12.695 1.34196C11.1627 1.11668 9.59507 1 8.00019 1C6.40517 1 4.83741 1.1167 3.30498 1.34202C2.24894 1.49729 1.5 2.42637 1.5 3.49376V7.50623Z" stroke="#999999" stroke-width="1.5" stroke-linecap="round" stroke-linejoin="round"/>
</svg>
