<svg width="28" height="22" viewBox="0 0 28 22" fill="none" xmlns="http://www.w3.org/2000/svg">
<path d="M9.26334 22C10.8537 22.0072 12.4301 21.7761 13.9012 21.32C15.3707 21.7799 16.9481 22.0112 18.539 22C23.3689 22 27.152 20.055 27.152 17.571V13.429C27.152 10.945 23.3689 9.00001 18.539 9.00001C18.315 9.00001 18.0951 9.00801 17.8764 9.01701V4.333C17.8764 1.9 14.0933 0 9.26334 0C4.4334 0 0.650269 1.9 0.650269 4.333V17.667C0.650269 20.1 4.4334 22 9.26334 22ZM24.5019 17.571C24.5019 18.72 22.0531 20 18.539 20C15.0248 20 12.5761 18.72 12.5761 17.571V16.646C14.3705 17.4696 16.4391 17.8898 18.539 17.857C20.6388 17.8898 22.7074 17.4696 24.5019 16.646V17.571ZM18.539 11C22.0531 11 24.5019 12.28 24.5019 13.429C24.5019 14.578 22.0531 15.857 18.539 15.857C15.0248 15.857 12.5761 14.577 12.5761 13.429C12.5761 12.281 15.0248 11 18.539 11ZM9.26334 2C12.7775 2 15.2262 3.23 15.2262 4.333C15.2262 5.43601 12.7775 6.66701 9.26334 6.66701C5.74921 6.66701 3.30045 5.43701 3.30045 4.333C3.30045 3.229 5.74921 2 9.26334 2ZM3.30045 7.48201C5.10239 8.28959 7.16806 8.7001 9.26334 8.66701C11.3586 8.7001 13.4243 8.28959 15.2262 7.48201V9.33001C13.7821 9.6047 12.4577 10.1586 11.3835 10.937C10.6868 11.0508 9.97617 11.1091 9.26334 11.111C5.74921 11.111 3.30045 9.88101 3.30045 8.77801V7.48201ZM3.30045 11.927C5.10277 12.7338 7.16826 13.1439 9.26334 13.111C9.49921 13.111 9.72712 13.089 9.95901 13.08C9.93927 13.1958 9.92822 13.3123 9.92589 13.429V15.514C9.70327 15.524 9.48861 15.556 9.26334 15.556C5.74921 15.556 3.30045 14.326 3.30045 13.222V11.927ZM3.30045 16.371C5.10239 17.1786 7.16806 17.5891 9.26334 17.556C9.48596 17.556 9.7046 17.543 9.92589 17.535V17.571C9.94485 18.4223 10.3783 19.2385 11.1436 19.864C10.5237 19.9524 9.89428 19.9979 9.26334 20C5.74921 20 3.30045 18.77 3.30045 17.667V16.371Z" fill="#5967A2"/>
</svg>
