<?xml version="1.0" encoding="UTF-8"?>
<svg version="1.1" xmlns="http://www.w3.org/2000/svg" width="90" height="90">
<path d="M0 0 C1.91015625 0.23046875 1.91015625 0.23046875 3.91015625 2.23046875 C4.10738281 3.22820313 4.10738281 3.22820313 4.30859375 4.24609375 C4.7066278 6.34934569 4.7066278 6.34934569 6.51171875 7.21484375 C7.17945313 7.4675 7.8471875 7.72015625 8.53515625 7.98046875 C14.16243201 10.54108164 18.3945172 14.90119346 20.96313477 20.54345703 C21.9112883 23.23368075 22.2863952 25.48505194 22.5078125 28.3203125 C22.58708984 29.26970703 22.66636719 30.21910156 22.74804688 31.19726562 C22.82216797 32.17759766 22.89628906 33.15792969 22.97265625 34.16796875 C23.12814171 36.11474949 23.2856383 38.06137084 23.4453125 40.0078125 C23.51113525 40.86624756 23.57695801 41.72468262 23.64477539 42.60913086 C23.9373347 45.4989278 24.43264815 48.36542018 24.91015625 51.23046875 C7.09015625 51.23046875 -10.72984375 51.23046875 -29.08984375 51.23046875 C-28.42984375 46.61046875 -27.76984375 41.99046875 -27.08984375 37.23046875 C-26.92794868 34.77428924 -26.79228632 32.31575947 -26.71484375 29.85546875 C-26.15419889 21.6296138 -24.21226606 16.94660462 -18.15234375 11.35546875 C-15.79023236 9.40243811 -14.08985244 8.23047215 -11.21484375 7.10546875 C-8.81837182 6.39378414 -8.81837182 6.39378414 -7.83984375 3.66796875 C-7.59234375 2.86359375 -7.34484375 2.05921875 -7.08984375 1.23046875 C-5.19495423 -0.66442077 -2.51845229 0.05027763 0 0 Z " fill="#000000" transform="translate(47.08984375,8.76953125)"/>
<path d="M0 0 C21.78 0 43.56 0 66 0 C67 4 67 4 66 6 C58.08 6 50.16 6 42 6 C42 8.31 42 10.62 42 13 C40.01216563 15.91963173 38.5685303 17.61102978 35.0625 18.48046875 C31.09984094 18.75815509 29.33588599 18.23092162 26 15.9375 C24 13 24 13 24 6 C16.08 6 8.16 6 0 6 C-1 2 -1 2 0 0 Z " fill="#000000" transform="translate(12,66)"/>
</svg>
