<svg width="25" height="24" viewBox="0 0 25 24" fill="none" xmlns="http://www.w3.org/2000/svg">
<path d="M12.625 1.5C6.82656 1.5 2.125 6.20156 2.125 12C2.125 17.7984 6.82656 22.5 12.625 22.5C18.4234 22.5 23.125 17.7984 23.125 12C23.125 6.20156 18.4234 1.5 12.625 1.5ZM12.625 20.7188C7.81094 20.7188 3.90625 16.8141 3.90625 12C3.90625 7.18594 7.81094 3.28125 12.625 3.28125C17.4391 3.28125 21.3438 7.18594 21.3438 12C21.3438 16.8141 17.4391 20.7188 12.625 20.7188Z" fill="black"/>
<path d="M17.4859 11.6971L10.5461 6.65804C10.4904 6.61724 10.4245 6.5927 10.3558 6.58714C10.287 6.58159 10.218 6.59525 10.1565 6.6266C10.095 6.65795 10.0435 6.70576 10.0075 6.76469C9.97164 6.82362 9.9528 6.89137 9.95313 6.96038V17.0385C9.95313 17.3456 10.3 17.519 10.5461 17.3409L17.4859 12.3018C17.5339 12.2673 17.5729 12.2219 17.5998 12.1693C17.6267 12.1167 17.6407 12.0585 17.6407 11.9995C17.6407 11.9404 17.6267 11.8822 17.5998 11.8296C17.5729 11.7771 17.5339 11.7316 17.4859 11.6971ZM11.4484 14.8377V9.16117L15.3555 11.9995L11.4484 14.8377Z" fill="black"/>
</svg>
