<svg width="9" height="9" viewBox="0 0 9 9" fill="none" xmlns="http://www.w3.org/2000/svg">
<path d="M8.5 0.5C8.5 0.367392 8.44732 0.240215 8.35355 0.146447C8.25979 0.0526785 8.13261 0 8 0C7.86739 0 7.74021 0.0526785 7.64645 0.146447C7.55268 0.240215 7.5 0.367392 7.5 0.5V3.748L1.233 0.112C0.693 -0.2 0 0.178 0 0.808V8.192C0 8.822 0.692 9.202 1.233 8.889L7.5 5.253V8.5C7.5 8.63261 7.55268 8.75979 7.64645 8.85355C7.74021 8.94732 7.86739 9 8 9C8.13261 9 8.25979 8.94732 8.35355 8.85355C8.44732 8.75979 8.5 8.63261 8.5 8.5V0.5Z" fill="#209D3D"/>
</svg>
